<mxfile host="Electron" modified="2024-03-17T05:43:06.607Z" agent="Mozilla/5.0 (Windows NT 10.0; Win64; x64) AppleWebKit/537.36 (KHTML, like Gecko) draw.io/24.0.4 Chrome/120.0.6099.109 Electron/28.1.0 Safari/537.36" etag="Ro8xh9fnVm7BSEXzKDt5" version="24.0.4" type="device">
  <diagram name="Page-1" id="Lvy0xFe0QloPGp59EyZt">
    <mxGraphModel dx="780" dy="496" grid="1" gridSize="10" guides="1" tooltips="1" connect="1" arrows="1" fold="1" page="1" pageScale="1" pageWidth="850" pageHeight="1100" math="0" shadow="0">
      <root>
        <mxCell id="0" />
        <mxCell id="1" parent="0" />
        <mxCell id="_hlG6vj5Yn_lpc4oUv2_-43" value="" style="rounded=0;whiteSpace=wrap;html=1;fillColor=#e1d5e7;strokeColor=#9673a6;" vertex="1" parent="1">
          <mxGeometry x="90.75" y="460" width="684.5" height="510" as="geometry" />
        </mxCell>
        <mxCell id="_hlG6vj5Yn_lpc4oUv2_-16" value="" style="rounded=0;whiteSpace=wrap;html=1;fillColor=#dae8fc;strokeColor=#6c8ebf;" vertex="1" parent="1">
          <mxGeometry x="90.75" y="100" width="684.5" height="350" as="geometry" />
        </mxCell>
        <mxCell id="_hlG6vj5Yn_lpc4oUv2_-1" value="" style="rounded=1;whiteSpace=wrap;html=1;fillColor=#fff2cc;strokeColor=#d6b656;" vertex="1" parent="1">
          <mxGeometry x="110" y="150" width="210" height="140" as="geometry" />
        </mxCell>
        <mxCell id="_hlG6vj5Yn_lpc4oUv2_-2" value="&lt;b&gt;User Management&lt;/b&gt;" style="text;html=1;align=center;verticalAlign=middle;whiteSpace=wrap;rounded=0;fillColor=#ffe6cc;strokeColor=#d79b00;" vertex="1" parent="1">
          <mxGeometry x="157.5" y="154" width="125" height="30" as="geometry" />
        </mxCell>
        <mxCell id="_hlG6vj5Yn_lpc4oUv2_-3" value="&lt;div&gt;1. Ability to perform CRUD operations on user data.&lt;/div&gt;&lt;div&gt;2. User registration with username, email, and password.&lt;/div&gt;&lt;div&gt;3. Secure user authentication and role-based access control.&lt;/div&gt;" style="text;html=1;align=left;verticalAlign=middle;whiteSpace=wrap;rounded=0;" vertex="1" parent="1">
          <mxGeometry x="121" y="220" width="200" height="30" as="geometry" />
        </mxCell>
        <mxCell id="_hlG6vj5Yn_lpc4oUv2_-4" value="" style="rounded=1;whiteSpace=wrap;html=1;fillColor=#fff2cc;strokeColor=#d6b656;" vertex="1" parent="1">
          <mxGeometry x="330" y="150" width="210" height="140" as="geometry" />
        </mxCell>
        <mxCell id="_hlG6vj5Yn_lpc4oUv2_-5" value="&lt;b&gt;Employee Management&lt;/b&gt;" style="text;html=1;align=center;verticalAlign=middle;whiteSpace=wrap;rounded=0;fillColor=#ffe6cc;strokeColor=#d79b00;" vertex="1" parent="1">
          <mxGeometry x="361" y="154" width="142.5" height="30" as="geometry" />
        </mxCell>
        <mxCell id="_hlG6vj5Yn_lpc4oUv2_-6" value="&lt;div&gt;1. CRUD operations on employee records.&lt;/div&gt;&lt;div&gt;2. Storage and retrieval of employee details such as name, email, phone number, department, and position.&lt;/div&gt;&lt;div&gt;3. Role-based access control for employee data.&lt;/div&gt;" style="text;html=1;align=left;verticalAlign=middle;whiteSpace=wrap;rounded=0;" vertex="1" parent="1">
          <mxGeometry x="341" y="220" width="199" height="30" as="geometry" />
        </mxCell>
        <mxCell id="_hlG6vj5Yn_lpc4oUv2_-7" value="" style="rounded=1;whiteSpace=wrap;html=1;fillColor=#fff2cc;strokeColor=#d6b656;" vertex="1" parent="1">
          <mxGeometry x="550" y="150" width="210" height="140" as="geometry" />
        </mxCell>
        <mxCell id="_hlG6vj5Yn_lpc4oUv2_-8" value="&lt;b&gt;Department Management&lt;/b&gt;" style="text;html=1;align=center;verticalAlign=middle;whiteSpace=wrap;rounded=0;fillColor=#ffe6cc;strokeColor=#d79b00;" vertex="1" parent="1">
          <mxGeometry x="576" y="154" width="153.5" height="30" as="geometry" />
        </mxCell>
        <mxCell id="_hlG6vj5Yn_lpc4oUv2_-9" value="&lt;div&gt;1. CRUD operations on department records.&lt;/div&gt;&lt;div&gt;2. Storage and retrieval of department details including name and description.&lt;/div&gt;" style="text;html=1;align=left;verticalAlign=middle;whiteSpace=wrap;rounded=0;" vertex="1" parent="1">
          <mxGeometry x="561" y="220" width="199" height="30" as="geometry" />
        </mxCell>
        <mxCell id="_hlG6vj5Yn_lpc4oUv2_-10" value="" style="rounded=1;whiteSpace=wrap;html=1;fillColor=#fff2cc;strokeColor=#d6b656;" vertex="1" parent="1">
          <mxGeometry x="215.5" y="300" width="210" height="140" as="geometry" />
        </mxCell>
        <mxCell id="_hlG6vj5Yn_lpc4oUv2_-11" value="&lt;b&gt;Position Management&lt;/b&gt;" style="text;html=1;align=center;verticalAlign=middle;whiteSpace=wrap;rounded=0;fillColor=#ffe6cc;strokeColor=#d79b00;" vertex="1" parent="1">
          <mxGeometry x="256" y="304" width="132.5" height="30" as="geometry" />
        </mxCell>
        <mxCell id="_hlG6vj5Yn_lpc4oUv2_-12" value="&lt;div&gt;1. CRUD operations on position records.&lt;/div&gt;&lt;div&gt;2. Storage and retrieval of position details such as name and description.&lt;/div&gt;" style="text;html=1;align=left;verticalAlign=middle;whiteSpace=wrap;rounded=0;" vertex="1" parent="1">
          <mxGeometry x="226.5" y="370" width="200" height="30" as="geometry" />
        </mxCell>
        <mxCell id="_hlG6vj5Yn_lpc4oUv2_-13" value="" style="rounded=1;whiteSpace=wrap;html=1;fillColor=#fff2cc;strokeColor=#d6b656;" vertex="1" parent="1">
          <mxGeometry x="435.5" y="300" width="210" height="140" as="geometry" />
        </mxCell>
        <mxCell id="_hlG6vj5Yn_lpc4oUv2_-14" value="&lt;b&gt;Reporting Structure&lt;/b&gt;" style="text;html=1;align=center;verticalAlign=middle;whiteSpace=wrap;rounded=0;fillColor=#ffe6cc;strokeColor=#d79b00;" vertex="1" parent="1">
          <mxGeometry x="476" y="304" width="132.5" height="30" as="geometry" />
        </mxCell>
        <mxCell id="_hlG6vj5Yn_lpc4oUv2_-15" value="&lt;div&gt;1. Ability to define reporting structures for employees.&lt;/div&gt;&lt;div&gt;2. Assigning supervisors to employees.&lt;/div&gt;" style="text;html=1;align=left;verticalAlign=middle;whiteSpace=wrap;rounded=0;" vertex="1" parent="1">
          <mxGeometry x="465.5" y="370" width="200" height="30" as="geometry" />
        </mxCell>
        <mxCell id="_hlG6vj5Yn_lpc4oUv2_-17" value="&lt;b&gt;&lt;font style=&quot;font-size: 16px;&quot;&gt;Core Capabilities&lt;/font&gt;&lt;/b&gt;" style="text;html=1;align=center;verticalAlign=middle;whiteSpace=wrap;rounded=0;fillColor=#0050ef;fontColor=#ffffff;strokeColor=#001DBC;" vertex="1" parent="1">
          <mxGeometry x="341" y="110" width="141.5" height="30" as="geometry" />
        </mxCell>
        <mxCell id="_hlG6vj5Yn_lpc4oUv2_-18" value="" style="rounded=1;whiteSpace=wrap;html=1;fillColor=#fad9d5;strokeColor=#ae4132;" vertex="1" parent="1">
          <mxGeometry x="103" y="510" width="210" height="140" as="geometry" />
        </mxCell>
        <mxCell id="_hlG6vj5Yn_lpc4oUv2_-19" value="&lt;b&gt;AuthN &amp;amp; AuthZ&lt;/b&gt;" style="text;html=1;align=center;verticalAlign=middle;whiteSpace=wrap;rounded=0;fillColor=#f8cecc;strokeColor=#b85450;" vertex="1" parent="1">
          <mxGeometry x="143.5" y="514" width="132.5" height="30" as="geometry" />
        </mxCell>
        <mxCell id="_hlG6vj5Yn_lpc4oUv2_-20" value="&lt;div&gt;1. Implementation of JSON Web Tokens (JWT) for authentication.&lt;/div&gt;&lt;div&gt;2. Role-based access control to restrict access to sensitive data and operations.&lt;/div&gt;" style="text;html=1;align=left;verticalAlign=middle;whiteSpace=wrap;rounded=0;" vertex="1" parent="1">
          <mxGeometry x="113" y="580" width="200" height="30" as="geometry" />
        </mxCell>
        <mxCell id="_hlG6vj5Yn_lpc4oUv2_-21" value="" style="rounded=1;whiteSpace=wrap;html=1;fillColor=#fad9d5;strokeColor=#ae4132;" vertex="1" parent="1">
          <mxGeometry x="323" y="510" width="210" height="140" as="geometry" />
        </mxCell>
        <mxCell id="_hlG6vj5Yn_lpc4oUv2_-22" value="&lt;b&gt;Search Functionality&lt;/b&gt;" style="text;html=1;align=center;verticalAlign=middle;whiteSpace=wrap;rounded=0;fillColor=#f8cecc;strokeColor=#b85450;" vertex="1" parent="1">
          <mxGeometry x="363.5" y="514" width="132.5" height="30" as="geometry" />
        </mxCell>
        <mxCell id="_hlG6vj5Yn_lpc4oUv2_-23" value="&lt;div&gt;1. Searching for employees by name, department, or position.&lt;/div&gt;&lt;div&gt;2. Efficient retrieval of search results via RESTful API endpoints.&lt;/div&gt;" style="text;html=1;align=left;verticalAlign=middle;whiteSpace=wrap;rounded=0;" vertex="1" parent="1">
          <mxGeometry x="333" y="580" width="200" height="30" as="geometry" />
        </mxCell>
        <mxCell id="_hlG6vj5Yn_lpc4oUv2_-24" value="" style="rounded=1;whiteSpace=wrap;html=1;fillColor=#fad9d5;strokeColor=#ae4132;" vertex="1" parent="1">
          <mxGeometry x="542" y="510" width="210" height="140" as="geometry" />
        </mxCell>
        <mxCell id="_hlG6vj5Yn_lpc4oUv2_-25" value="&lt;b&gt;Performaance Optimization&lt;/b&gt;" style="text;html=1;align=center;verticalAlign=middle;whiteSpace=wrap;rounded=0;fillColor=#f8cecc;strokeColor=#b85450;" vertex="1" parent="1">
          <mxGeometry x="582.5" y="514" width="132.5" height="30" as="geometry" />
        </mxCell>
        <mxCell id="_hlG6vj5Yn_lpc4oUv2_-26" value="&lt;div&gt;1. Handling concurrent requests efficiently to ensure system responsiveness.&lt;/div&gt;&lt;div&gt;2. Optimizing response times for API calls to enhance user experience.&lt;/div&gt;" style="text;html=1;align=left;verticalAlign=middle;whiteSpace=wrap;rounded=0;" vertex="1" parent="1">
          <mxGeometry x="552" y="580" width="200" height="30" as="geometry" />
        </mxCell>
        <mxCell id="_hlG6vj5Yn_lpc4oUv2_-27" value="" style="rounded=1;whiteSpace=wrap;html=1;fillColor=#fad9d5;strokeColor=#ae4132;" vertex="1" parent="1">
          <mxGeometry x="102.5" y="660" width="210" height="140" as="geometry" />
        </mxCell>
        <mxCell id="_hlG6vj5Yn_lpc4oUv2_-28" value="&lt;b&gt;Security Measures&lt;/b&gt;" style="text;html=1;align=center;verticalAlign=middle;whiteSpace=wrap;rounded=0;fillColor=#f8cecc;strokeColor=#b85450;" vertex="1" parent="1">
          <mxGeometry x="143" y="664" width="132.5" height="30" as="geometry" />
        </mxCell>
        <mxCell id="_hlG6vj5Yn_lpc4oUv2_-29" value="&lt;div&gt;1. Encryption of communication with the server using HTTPS.&lt;/div&gt;&lt;div&gt;2. Secure storage of user passwords using encryption techniques.&lt;/div&gt;" style="text;html=1;align=left;verticalAlign=middle;whiteSpace=wrap;rounded=0;" vertex="1" parent="1">
          <mxGeometry x="112.5" y="730" width="200" height="30" as="geometry" />
        </mxCell>
        <mxCell id="_hlG6vj5Yn_lpc4oUv2_-30" value="" style="rounded=1;whiteSpace=wrap;html=1;fillColor=#fad9d5;strokeColor=#ae4132;" vertex="1" parent="1">
          <mxGeometry x="322.5" y="660" width="210" height="140" as="geometry" />
        </mxCell>
        <mxCell id="_hlG6vj5Yn_lpc4oUv2_-31" value="&lt;b&gt;Reliability and Data Integrity&lt;/b&gt;" style="text;html=1;align=center;verticalAlign=middle;whiteSpace=wrap;rounded=0;fillColor=#f8cecc;strokeColor=#b85450;" vertex="1" parent="1">
          <mxGeometry x="363" y="664" width="132.5" height="30" as="geometry" />
        </mxCell>
        <mxCell id="_hlG6vj5Yn_lpc4oUv2_-32" value="&lt;div&gt;1. Ensuring high availability with minimal downtime.&lt;/div&gt;&lt;div&gt;2. Implementation of backup and recovery mechanisms to maintain data integrity.&lt;/div&gt;" style="text;html=1;align=left;verticalAlign=middle;whiteSpace=wrap;rounded=0;" vertex="1" parent="1">
          <mxGeometry x="332.5" y="730" width="200" height="30" as="geometry" />
        </mxCell>
        <mxCell id="_hlG6vj5Yn_lpc4oUv2_-33" value="" style="rounded=1;whiteSpace=wrap;html=1;fillColor=#fad9d5;strokeColor=#ae4132;" vertex="1" parent="1">
          <mxGeometry x="541.5" y="660" width="210" height="140" as="geometry" />
        </mxCell>
        <mxCell id="_hlG6vj5Yn_lpc4oUv2_-34" value="&lt;b&gt;Scalability&lt;/b&gt;" style="text;html=1;align=center;verticalAlign=middle;whiteSpace=wrap;rounded=0;fillColor=#f8cecc;strokeColor=#b85450;" vertex="1" parent="1">
          <mxGeometry x="582" y="664" width="132.5" height="30" as="geometry" />
        </mxCell>
        <mxCell id="_hlG6vj5Yn_lpc4oUv2_-35" value="&lt;div&gt;1. Designing the system to accommodate future scalability requirements.&lt;/div&gt;&lt;div&gt;2. Supporting horizontal scaling to handle increased loads.&lt;/div&gt;" style="text;html=1;align=left;verticalAlign=middle;whiteSpace=wrap;rounded=0;" vertex="1" parent="1">
          <mxGeometry x="551.5" y="730" width="200" height="30" as="geometry" />
        </mxCell>
        <mxCell id="_hlG6vj5Yn_lpc4oUv2_-37" value="" style="rounded=1;whiteSpace=wrap;html=1;fillColor=#fad9d5;strokeColor=#ae4132;" vertex="1" parent="1">
          <mxGeometry x="214.25" y="810" width="210" height="140" as="geometry" />
        </mxCell>
        <mxCell id="_hlG6vj5Yn_lpc4oUv2_-38" value="&lt;b&gt;Maintainability&lt;/b&gt;" style="text;html=1;align=center;verticalAlign=middle;whiteSpace=wrap;rounded=0;fillColor=#f8cecc;strokeColor=#b85450;" vertex="1" parent="1">
          <mxGeometry x="254.75" y="814" width="132.5" height="30" as="geometry" />
        </mxCell>
        <mxCell id="_hlG6vj5Yn_lpc4oUv2_-39" value="&lt;div&gt;1. Structuring code and documenting it for ease of maintenance.&lt;/div&gt;&lt;div&gt;2. Conducting regular code reviews to ensure adherence to best practices.&lt;/div&gt;" style="text;html=1;align=left;verticalAlign=middle;whiteSpace=wrap;rounded=0;" vertex="1" parent="1">
          <mxGeometry x="224.25" y="880" width="200" height="30" as="geometry" />
        </mxCell>
        <mxCell id="_hlG6vj5Yn_lpc4oUv2_-40" value="" style="rounded=1;whiteSpace=wrap;html=1;fillColor=#fad9d5;strokeColor=#ae4132;" vertex="1" parent="1">
          <mxGeometry x="434.25" y="810" width="210" height="140" as="geometry" />
        </mxCell>
        <mxCell id="_hlG6vj5Yn_lpc4oUv2_-41" value="&lt;b&gt;User Registration and Management&lt;/b&gt;" style="text;html=1;align=center;verticalAlign=middle;whiteSpace=wrap;rounded=0;fillColor=#f8cecc;strokeColor=#b85450;" vertex="1" parent="1">
          <mxGeometry x="474.75" y="814" width="132.5" height="30" as="geometry" />
        </mxCell>
        <mxCell id="_hlG6vj5Yn_lpc4oUv2_-42" value="&lt;div&gt;1. Admin and regular user registration functionalities.&lt;/div&gt;&lt;div&gt;2. Management of user roles and permissions.&lt;/div&gt;" style="text;html=1;align=left;verticalAlign=middle;whiteSpace=wrap;rounded=0;" vertex="1" parent="1">
          <mxGeometry x="444.25" y="880" width="200" height="30" as="geometry" />
        </mxCell>
        <mxCell id="_hlG6vj5Yn_lpc4oUv2_-44" value="&lt;b&gt;&lt;font style=&quot;font-size: 16px;&quot;&gt;Supplementarty Capabilities&lt;/font&gt;&lt;/b&gt;" style="text;html=1;align=center;verticalAlign=middle;whiteSpace=wrap;rounded=0;fillColor=#d80073;fontColor=#ffffff;strokeColor=#A50040;" vertex="1" parent="1">
          <mxGeometry x="311" y="470" width="229" height="30" as="geometry" />
        </mxCell>
        <mxCell id="_hlG6vj5Yn_lpc4oUv2_-45" value="&lt;b&gt;&lt;font style=&quot;font-size: 19px;&quot;&gt;Employee Management Capability Map&lt;/font&gt;&lt;/b&gt;" style="text;html=1;align=center;verticalAlign=middle;whiteSpace=wrap;rounded=0;" vertex="1" parent="1">
          <mxGeometry x="215.5" y="50" width="379" height="30" as="geometry" />
        </mxCell>
      </root>
    </mxGraphModel>
  </diagram>
</mxfile>
